<svg xmlns="http://www.w3.org/2000/svg" width="860" height="720" viewBox="0 0 860 720"><path transform="translate(393.50634461967 469.77665711967006) scale(1) translate(36 -118) rotate(180)" d="M 59 0 L 209.11652675547506 0" fill="none" stroke="#000000" stroke-width="5"/><polygon transform="translate(393.50634461967 469.77665711967006) scale(1) translate(36 -118) rotate(180) translate(233.97867737322338 0) rotate(0)" points="-24.8621506177483,0 -27.62461179749811,9.20820393249937 0,0 -27.62461179749811,-9.20820393249937" fill="undefined" stroke="none" stroke-width="5"/><rect transform="translate(393.50634461967 469.77665711967006) scale(1) translate(-98.05826337773755 -117.99999999999999) rotate(360) translate(0 -13) translate(0 0) translate(-32.55859375 0)" x="0" y="0" width="65.1171875" height="26" rx="5" ry="5" fill="#ffffff" stroke="none"/><text xml:space="preserve" transform="translate(393.50634461967 469.77665711967006) scale(1) translate(-98.05826337773755 -117.99999999999999) rotate(360) translate(0 -13) translate(0 0) translate(-32.55859375 0)" x="5" y="17.45703125" font-family="sans-serif" font-size="16" font-weight="normal" text-anchor="left" fill="#000000">ABOUT</text><path transform="translate(393.50634461967 469.77665711967006) scale(1) translate(36 -118) rotate(135)" d="M 59 0 L 330.4722684095957 0" fill="none" stroke="#000000" stroke-width="5"/><polygon transform="translate(393.50634461967 469.77665711967006) scale(1) translate(36 -118) rotate(135) translate(355.334419027344 0) rotate(0)" points="-24.8621506177483,0 -27.62461179749811,9.20820393249937 0,0 -27.62461179749811,-9.20820393249937" fill="undefined" stroke="none" stroke-width="5"/><rect transform="translate(393.50634461967 469.77665711967006) scale(1) translate(-101.69924103826614 19.699241038266166) rotate(315) translate(0 -13) translate(0 0) translate(-32.55859375 0)" x="0" y="0" width="65.1171875" height="26" rx="5" ry="5" fill="#ffffff" stroke="none"/><text xml:space="preserve" transform="translate(393.50634461967 469.77665711967006) scale(1) translate(-101.69924103826614 19.699241038266166) rotate(315) translate(0 -13) translate(0 0) translate(-32.55859375 0)" x="5" y="17.45703125" font-family="sans-serif" font-size="16" font-weight="normal" text-anchor="left" fill="#000000">ABOUT</text><path transform="translate(393.50634461967 469.77665711967006) scale(1) translate(-256.9786773732234 174.97867737322343) rotate(-90)" d="M 59 0 L 209.11652675547512 0" fill="none" stroke="#000000" stroke-width="5"/><polygon transform="translate(393.50634461967 469.77665711967006) scale(1) translate(-256.9786773732234 174.97867737322343) rotate(-90) translate(233.97867737322343 0) rotate(0)" points="-24.8621506177483,0 -27.62461179749811,9.20820393249937 0,0 -27.62461179749811,-9.20820393249937" fill="undefined" stroke="none" stroke-width="5"/><rect transform="translate(393.50634461967 469.77665711967006) scale(1) translate(-256.9786773732234 40.92041399548589) rotate(90) translate(0 -13) translate(0 0) translate(-61.61328125 0)" x="0" y="0" width="123.2265625" height="26" rx="5" ry="5" fill="#ffffff" stroke="none"/><text xml:space="preserve" transform="translate(393.50634461967 469.77665711967006) scale(1) translate(-256.9786773732234 40.92041399548589) rotate(90) translate(0 -13) translate(0 0) translate(-61.61328125 0)" x="5" y="17.45703125" font-family="sans-serif" font-size="16" font-weight="normal" text-anchor="left" fill="#000000">IN_CATEGORY</text><path transform="translate(393.50634461967 469.77665711967006) scale(1) translate(36 -118) rotate(-90)" d="M 59 0 L 209.11652675547506 0" fill="none" stroke="#000000" stroke-width="5"/><polygon transform="translate(393.50634461967 469.77665711967006) scale(1) translate(36 -118) rotate(-90) translate(233.97867737322338 0) rotate(0)" points="-24.8621506177483,0 -27.62461179749811,9.20820393249937 0,0 -27.62461179749811,-9.20820393249937" fill="undefined" stroke="none" stroke-width="5"/><rect transform="translate(393.50634461967 469.77665711967006) scale(1) translate(36.00000000000001 -252.05826337773755) rotate(90) translate(0 -22.6) translate(0 0) translate(-40.1171875 0)" x="0" y="0" width="80.234375" height="26" rx="5" ry="5" fill="#ffffff" stroke="none"/><text xml:space="preserve" transform="translate(393.50634461967 469.77665711967006) scale(1) translate(36.00000000000001 -252.05826337773755) rotate(90) translate(0 -22.6) translate(0 0) translate(-40.1171875 0)" x="5" y="17.45703125" font-family="sans-serif" font-size="16" font-weight="normal" text-anchor="left" fill="#000000">AGAINST</text><rect transform="translate(393.50634461967 469.77665711967006) scale(1) translate(36.00000000000001 -252.05826337773755) rotate(90) translate(0 -22.6) translate(0 26) translate(-40.03125 0)" x="0" y="0" width="80.0625" height="19.2" rx="0" ry="0" fill="white" stroke="none"/><text xml:space="preserve" transform="translate(393.50634461967 469.77665711967006) scale(1) translate(36.00000000000001 -252.05826337773755) rotate(90) translate(0 -22.6) translate(0 26) translate(-40.03125 0)" x="40.03125" y="14.05703125" font-family="sans-serif" font-size="16" font-weight="normal" text-anchor="end" fill="#000000">date:</text><text xml:space="preserve" transform="translate(393.50634461967 469.77665711967006) scale(1) translate(36.00000000000001 -252.05826337773755) rotate(90) translate(0 -22.6) translate(0 26) translate(-40.03125 0)" x="44.4765625" y="14.05703125" font-family="sans-serif" font-size="16" font-weight="normal" text-anchor="start" fill="#000000">date</text><path transform="translate(393.50634461967 469.77665711967006) scale(1) translate(36 -410.9786773732234) rotate(135)" d="M 59 0 L 330.47226840959564 0" fill="none" stroke="#000000" stroke-width="5"/><polygon transform="translate(393.50634461967 469.77665711967006) scale(1) translate(36 -410.9786773732234) rotate(135) translate(355.3344190273439 0) rotate(0)" points="-24.8621506177483,0 -27.62461179749811,9.20820393249937 0,0 -27.62461179749811,-9.20820393249937" fill="undefined" stroke="none" stroke-width="5"/><rect transform="translate(393.50634461967 469.77665711967006) scale(1) translate(-101.69924103826611 -273.27943633495727) rotate(315) translate(0 -13) translate(0 0) translate(-46.34375 0)" x="0" y="0" width="92.6875" height="26" rx="5" ry="5" fill="#ffffff" stroke="none"/><text xml:space="preserve" transform="translate(393.50634461967 469.77665711967006) scale(1) translate(-101.69924103826611 -273.27943633495727) rotate(315) translate(0 -13) translate(0 0) translate(-46.34375 0)" x="5" y="17.45703125" font-family="sans-serif" font-size="16" font-weight="normal" text-anchor="left" fill="#000000">PROVIDES</text><path transform="translate(393.50634461967 469.77665711967006) scale(1) translate(36 -118) rotate(-8.337350749427701e-15)" d="M 59 0 L 209.11652675547506 0" fill="none" stroke="#000000" stroke-width="5"/><polygon transform="translate(393.50634461967 469.77665711967006) scale(1) translate(36 -118) rotate(-8.337350749427701e-15) translate(233.97867737322338 0) rotate(0)" points="-24.8621506177483,0 -27.62461179749811,9.20820393249937 0,0 -27.62461179749811,-9.20820393249937" fill="undefined" stroke="none" stroke-width="5"/><rect transform="translate(393.50634461967 469.77665711967006) scale(1) translate(170.05826337773755 -118.00000000000001) rotate(-8.337350749427701e-15) translate(0 -13) translate(0 0) translate(-25.4375 0)" x="0" y="0" width="50.875" height="26" rx="5" ry="5" fill="#ffffff" stroke="none"/><text xml:space="preserve" transform="translate(393.50634461967 469.77665711967006) scale(1) translate(170.05826337773755 -118.00000000000001) rotate(-8.337350749427701e-15) translate(0 -13) translate(0 0) translate(-25.4375 0)" x="5" y="17.45703125" font-family="sans-serif" font-size="16" font-weight="normal" text-anchor="left" fill="#000000">WITH</text><path transform="translate(393.50634461967 469.77665711967006) scale(1) translate(36 -118) rotate(45.00000000000001)" d="M 59 0 L 330.4722684095957 0" fill="none" stroke="#000000" stroke-width="5"/><polygon transform="translate(393.50634461967 469.77665711967006) scale(1) translate(36 -118) rotate(45.00000000000001) translate(355.334419027344 0) rotate(0)" points="-24.8621506177483,0 -27.62461179749811,9.20820393249937 0,0 -27.62461179749811,-9.20820393249937" fill="undefined" stroke="none" stroke-width="5"/><rect transform="translate(393.50634461967 469.77665711967006) scale(1) translate(173.69924103826614 19.699241038266166) rotate(45.00000000000001) translate(0 -13) translate(0 0) translate(-25.4375 0)" x="0" y="0" width="50.875" height="26" rx="5" ry="5" fill="#ffffff" stroke="none"/><text xml:space="preserve" transform="translate(393.50634461967 469.77665711967006) scale(1) translate(173.69924103826614 19.699241038266166) rotate(45.00000000000001) translate(0 -13) translate(0 0) translate(-25.4375 0)" x="5" y="17.45703125" font-family="sans-serif" font-size="16" font-weight="normal" text-anchor="left" fill="#000000">WITH</text><path transform="translate(393.50634461967 469.77665711967006) scale(1) translate(328.9786773732234 174.97867737322343) rotate(-90)" d="M 59 0 L 209.11652675547518 0" fill="none" stroke="#000000" stroke-width="5"/><polygon transform="translate(393.50634461967 469.77665711967006) scale(1) translate(328.9786773732234 174.97867737322343) rotate(-90) translate(233.9786773732235 0) rotate(0)" points="-24.8621506177483,0 -27.62461179749811,9.20820393249937 0,0 -27.62461179749811,-9.20820393249937" fill="undefined" stroke="none" stroke-width="5"/><rect transform="translate(393.50634461967 469.77665711967006) scale(1) translate(328.9786773732234 40.92041399548583) rotate(90) translate(0 -13) translate(0 0) translate(-61.61328125 0)" x="0" y="0" width="123.2265625" height="26" rx="5" ry="5" fill="#ffffff" stroke="none"/><text xml:space="preserve" transform="translate(393.50634461967 469.77665711967006) scale(1) translate(328.9786773732234 40.92041399548583) rotate(90) translate(0 -13) translate(0 0) translate(-61.61328125 0)" x="5" y="17.45703125" font-family="sans-serif" font-size="16" font-weight="normal" text-anchor="left" fill="#000000">IN_CATEGORY</text><path transform="translate(393.50634461967 469.77665711967006) scale(1) translate(36 -118) rotate(90)" d="M 59 0 L 209.11652675547512 0" fill="none" stroke="#000000" stroke-width="5"/><polygon transform="translate(393.50634461967 469.77665711967006) scale(1) translate(36 -118) rotate(90) translate(233.97867737322343 0) rotate(0)" points="-24.8621506177483,0 -27.62461179749811,9.20820393249937 0,0 -27.62461179749811,-9.20820393249937" fill="undefined" stroke="none" stroke-width="5"/><rect transform="translate(393.50634461967 469.77665711967006) scale(1) translate(36.00000000000001 16.058263377737546) rotate(270) translate(0 -13) translate(0 0) translate(-38.19140625 0)" x="0" y="0" width="76.3828125" height="26" rx="5" ry="5" fill="#ffffff" stroke="none"/><text xml:space="preserve" transform="translate(393.50634461967 469.77665711967006) scale(1) translate(36.00000000000001 16.058263377737546) rotate(270) translate(0 -13) translate(0 0) translate(-38.19140625 0)" x="5" y="17.45703125" font-family="sans-serif" font-size="16" font-weight="normal" text-anchor="left" fill="#000000">TAGGED</text><path transform="translate(393.50634461967 469.77665711967006) scale(1) translate(36 -410.9786773732234) rotate(0)" d="M 59 0 L 247.26178202841263 0" fill="none" stroke="#000000" stroke-width="5"/><polygon transform="translate(393.50634461967 469.77665711967006) scale(1) translate(36 -410.9786773732234) rotate(0) translate(272.12393264616094 0) rotate(0)" points="-24.8621506177483,0 -27.62461179749811,9.20820393249937 0,0 -27.62461179749811,-9.20820393249937" fill="undefined" stroke="none" stroke-width="5"/><rect transform="translate(393.50634461967 469.77665711967006) scale(1) translate(189.13089101420633 -410.9786773732234) rotate(0) translate(0 -13) translate(0 0) translate(-51.2265625 0)" x="0" y="0" width="102.453125" height="26" rx="5" ry="5" fill="#ffffff" stroke="none"/><text xml:space="preserve" transform="translate(393.50634461967 469.77665711967006) scale(1) translate(189.13089101420633 -410.9786773732234) rotate(0) translate(0 -13) translate(0 0) translate(-51.2265625 0)" x="5" y="17.45703125" font-family="sans-serif" font-size="16" font-weight="normal" text-anchor="left" fill="#000000">ANSWERED</text><path transform="translate(393.50634461967 469.77665711967006) scale(1) translate(367.12393264616094 -410.9786773732234) rotate(138.49757662911244)" d="M 59 0 L 358.26855875044595 0" fill="none" stroke="#000000" stroke-width="5"/><polygon transform="translate(393.50634461967 469.77665711967006) scale(1) translate(367.12393264616094 -410.9786773732234) rotate(138.49757662911244) translate(383.13070936819423 0) rotate(0)" points="-24.8621506177483,0 -27.62461179749811,9.20820393249937 0,0 -27.62461179749811,-9.20820393249937" fill="undefined" stroke="none" stroke-width="5"/><rect transform="translate(393.50634461967 469.77665711967006) scale(1) translate(210.87194288900844 -272.72681218743537) rotate(318.4975766291124) translate(0 -32.2) translate(0 0) translate(-15.96875 0)" x="0" y="0" width="31.9375" height="26" rx="5" ry="5" fill="#ffffff" stroke="none"/><text xml:space="preserve" transform="translate(393.50634461967 469.77665711967006) scale(1) translate(210.87194288900844 -272.72681218743537) rotate(318.4975766291124) translate(0 -32.2) translate(0 0) translate(-15.96875 0)" x="5" y="17.45703125" font-family="sans-serif" font-size="16" font-weight="normal" text-anchor="left" fill="#000000">TO</text><rect transform="translate(393.50634461967 469.77665711967006) scale(1) translate(210.87194288900844 -272.72681218743537) rotate(318.4975766291124) translate(0 -32.2) translate(0 26) translate(-58.25390625 0)" x="0" y="0" width="116.5078125" height="38.4" rx="0" ry="0" fill="white" stroke="none"/><text xml:space="preserve" transform="translate(393.50634461967 469.77665711967006) scale(1) translate(210.87194288900844 -272.72681218743537) rotate(318.4975766291124) translate(0 -32.2) translate(0 26) translate(-58.25390625 0)" x="50.671875" y="14.05703125" font-family="sans-serif" font-size="16" font-weight="normal" text-anchor="end" fill="#000000">text:</text><text xml:space="preserve" transform="translate(393.50634461967 469.77665711967006) scale(1) translate(210.87194288900844 -272.72681218743537) rotate(318.4975766291124) translate(0 -32.2) translate(0 26) translate(-58.25390625 0)" x="55.1171875" y="14.05703125" font-family="sans-serif" font-size="16" font-weight="normal" text-anchor="start" fill="#000000">string</text><text xml:space="preserve" transform="translate(393.50634461967 469.77665711967006) scale(1) translate(210.87194288900844 -272.72681218743537) rotate(318.4975766291124) translate(0 -32.2) translate(0 26) translate(-58.25390625 0)" x="50.671875" y="33.25703125" font-family="sans-serif" font-size="16" font-weight="normal" text-anchor="end" fill="#000000">timely:</text><text xml:space="preserve" transform="translate(393.50634461967 469.77665711967006) scale(1) translate(210.87194288900844 -272.72681218743537) rotate(318.4975766291124) translate(0 -32.2) translate(0 26) translate(-58.25390625 0)" x="55.1171875" y="33.25703125" font-family="sans-serif" font-size="16" font-weight="normal" text-anchor="start" fill="#000000">boolean</text><circle transform="translate(393.50634461967 469.77665711967006) scale(1)" cx="36" cy="-118" r="52" fill="#ffffff" stroke="#000000" stroke-width="4"/><text xml:space="preserve" transform="translate(393.50634461967 469.77665711967006) scale(1) translate(36 -118) scale(0.384766240234375) translate(0 0) translate(0 0)" x="0" y="13.92822265625" font-family="sans-serif" font-size="50" font-weight="normal" text-anchor="middle" fill="#000000">Complaint</text><rect transform="translate(393.50634461967 469.77665711967006) scale(1) translate(36 -118) translate(-39.597979746446654 -116.39797974644665) translate(0 0) translate(-91.59375 0)" x="0" y="0" width="91.59375" height="76.8" rx="0" ry="0" fill="white" stroke="none"/><text xml:space="preserve" transform="translate(393.50634461967 469.77665711967006) scale(1) translate(36 -118) translate(-39.597979746446654 -116.39797974644665) translate(0 0) translate(-91.59375 0)" x="43.578125" y="14.05703125" font-family="sans-serif" font-size="16" font-weight="normal" text-anchor="end" fill="#000000">id:</text><text xml:space="preserve" transform="translate(393.50634461967 469.77665711967006) scale(1) translate(36 -118) translate(-39.597979746446654 -116.39797974644665) translate(0 0) translate(-91.59375 0)" x="48.0234375" y="14.05703125" font-family="sans-serif" font-size="16" font-weight="normal" text-anchor="start" fill="#000000">string</text><text xml:space="preserve" transform="translate(393.50634461967 469.77665711967006) scale(1) translate(36 -118) translate(-39.597979746446654 -116.39797974644665) translate(0 0) translate(-91.59375 0)" x="43.578125" y="33.25703125" font-family="sans-serif" font-size="16" font-weight="normal" text-anchor="end" fill="#000000">date:</text><text xml:space="preserve" transform="translate(393.50634461967 469.77665711967006) scale(1) translate(36 -118) translate(-39.597979746446654 -116.39797974644665) translate(0 0) translate(-91.59375 0)" x="48.0234375" y="33.25703125" font-family="sans-serif" font-size="16" font-weight="normal" text-anchor="start" fill="#000000">date</text><text xml:space="preserve" transform="translate(393.50634461967 469.77665711967006) scale(1) translate(36 -118) translate(-39.597979746446654 -116.39797974644665) translate(0 0) translate(-91.59375 0)" x="43.578125" y="52.45703125" font-family="sans-serif" font-size="16" font-weight="normal" text-anchor="end" fill="#000000">state:</text><text xml:space="preserve" transform="translate(393.50634461967 469.77665711967006) scale(1) translate(36 -118) translate(-39.597979746446654 -116.39797974644665) translate(0 0) translate(-91.59375 0)" x="48.0234375" y="52.45703125" font-family="sans-serif" font-size="16" font-weight="normal" text-anchor="start" fill="#000000">string</text><text xml:space="preserve" transform="translate(393.50634461967 469.77665711967006) scale(1) translate(36 -118) translate(-39.597979746446654 -116.39797974644665) translate(0 0) translate(-91.59375 0)" x="43.578125" y="71.65703125" font-family="sans-serif" font-size="16" font-weight="normal" text-anchor="end" fill="#000000">zip:</text><text xml:space="preserve" transform="translate(393.50634461967 469.77665711967006) scale(1) translate(36 -118) translate(-39.597979746446654 -116.39797974644665) translate(0 0) translate(-91.59375 0)" x="48.0234375" y="71.65703125" font-family="sans-serif" font-size="16" font-weight="normal" text-anchor="start" fill="#000000">string</text><circle transform="translate(393.50634461967 469.77665711967006) scale(1)" cx="-256.9786773732234" cy="-118" r="52" fill="#ffffff" stroke="#000000" stroke-width="4"/><text xml:space="preserve" transform="translate(393.50634461967 469.77665711967006) scale(1) translate(-256.9786773732234 -118) scale(0.49218800781249994) translate(0 0) translate(0 0)" x="0" y="13.92822265625" font-family="sans-serif" font-size="50" font-weight="normal" text-anchor="middle" fill="#000000">Product</text><rect transform="translate(393.50634461967 469.77665711967006) scale(1) translate(-256.9786773732234 -118) translate(-39.597979746446654 -58.79797974644666) translate(0 0) translate(-96.9296875 0)" x="0" y="0" width="96.9296875" height="19.2" rx="0" ry="0" fill="white" stroke="none"/><text xml:space="preserve" transform="translate(393.50634461967 469.77665711967006) scale(1) translate(-256.9786773732234 -118) translate(-39.597979746446654 -58.79797974644666) translate(0 0) translate(-96.9296875 0)" x="48.9140625" y="14.05703125" font-family="sans-serif" font-size="16" font-weight="normal" text-anchor="end" fill="#000000">name:</text><text xml:space="preserve" transform="translate(393.50634461967 469.77665711967006) scale(1) translate(-256.9786773732234 -118) translate(-39.597979746446654 -58.79797974644666) translate(0 0) translate(-96.9296875 0)" x="53.359375" y="14.05703125" font-family="sans-serif" font-size="16" font-weight="normal" text-anchor="start" fill="#000000">string</text><circle transform="translate(393.50634461967 469.77665711967006) scale(1)" cx="-256.9786773732234" cy="174.97867737322343" r="52" fill="#ffffff" stroke="#000000" stroke-width="4"/><text xml:space="preserve" transform="translate(393.50634461967 469.77665711967006) scale(1) translate(-256.9786773732234 174.97867737322343) scale(0.341797533203125) translate(0 0) translate(0 0)" x="0" y="13.92822265625" font-family="sans-serif" font-size="50" font-weight="normal" text-anchor="middle" fill="#000000">Subproduct</text><rect transform="translate(393.50634461967 469.77665711967006) scale(1) translate(-256.9786773732234 174.97867737322343) translate(3.429011037612589e-15 56) translate(0 0) translate(-48.46484375 0)" x="0" y="0" width="96.9296875" height="19.2" rx="0" ry="0" fill="white" stroke="none"/><text xml:space="preserve" transform="translate(393.50634461967 469.77665711967006) scale(1) translate(-256.9786773732234 174.97867737322343) translate(3.429011037612589e-15 56) translate(0 0) translate(-48.46484375 0)" x="48.9140625" y="14.05703125" font-family="sans-serif" font-size="16" font-weight="normal" text-anchor="end" fill="#000000">name:</text><text xml:space="preserve" transform="translate(393.50634461967 469.77665711967006) scale(1) translate(-256.9786773732234 174.97867737322343) translate(3.429011037612589e-15 56) translate(0 0) translate(-48.46484375 0)" x="53.359375" y="14.05703125" font-family="sans-serif" font-size="16" font-weight="normal" text-anchor="start" fill="#000000">string</text><circle transform="translate(393.50634461967 469.77665711967006) scale(1)" cx="36" cy="-410.9786773732234" r="52" fill="#ffffff" stroke="#000000" stroke-width="4"/><text xml:space="preserve" transform="translate(393.50634461967 469.77665711967006) scale(1) translate(36 -410.9786773732234) scale(0.40234434765624993) translate(0 0) translate(0 0)" x="0" y="13.92822265625" font-family="sans-serif" font-size="50" font-weight="normal" text-anchor="middle" fill="#000000">Company</text><rect transform="translate(393.50634461967 469.77665711967006) scale(1) translate(36 -410.9786773732234) translate(-39.597979746446654 -58.79797974644666) translate(0 0) translate(-96.9296875 0)" x="0" y="0" width="96.9296875" height="19.2" rx="0" ry="0" fill="white" stroke="none"/><text xml:space="preserve" transform="translate(393.50634461967 469.77665711967006) scale(1) translate(36 -410.9786773732234) translate(-39.597979746446654 -58.79797974644666) translate(0 0) translate(-96.9296875 0)" x="48.9140625" y="14.05703125" font-family="sans-serif" font-size="16" font-weight="normal" text-anchor="end" fill="#000000">name:</text><text xml:space="preserve" transform="translate(393.50634461967 469.77665711967006) scale(1) translate(36 -410.9786773732234) translate(-39.597979746446654 -58.79797974644666) translate(0 0) translate(-96.9296875 0)" x="53.359375" y="14.05703125" font-family="sans-serif" font-size="16" font-weight="normal" text-anchor="start" fill="#000000">string</text><circle transform="translate(393.50634461967 469.77665711967006) scale(1)" cx="328.9786773732234" cy="-118.00000000000004" r="52" fill="#ffffff" stroke="#000000" stroke-width="4"/><text xml:space="preserve" transform="translate(393.50634461967 469.77665711967006) scale(1) translate(328.9786773732234 -118.00000000000004) scale(0.6718753281250001) translate(0 0) translate(0 0)" x="0" y="13.92822265625" font-family="sans-serif" font-size="50" font-weight="normal" text-anchor="middle" fill="#000000">Issue</text><rect transform="translate(393.50634461967 469.77665711967006) scale(1) translate(328.9786773732234 -118.00000000000004) translate(39.59797974644666 -58.79797974644666) translate(0 0) translate(0 0)" x="0" y="0" width="96.9296875" height="19.2" rx="0" ry="0" fill="white" stroke="none"/><text xml:space="preserve" transform="translate(393.50634461967 469.77665711967006) scale(1) translate(328.9786773732234 -118.00000000000004) translate(39.59797974644666 -58.79797974644666) translate(0 0) translate(0 0)" x="48.9140625" y="14.05703125" font-family="sans-serif" font-size="16" font-weight="normal" text-anchor="end" fill="#000000">name:</text><text xml:space="preserve" transform="translate(393.50634461967 469.77665711967006) scale(1) translate(328.9786773732234 -118.00000000000004) translate(39.59797974644666 -58.79797974644666) translate(0 0) translate(0 0)" x="53.359375" y="14.05703125" font-family="sans-serif" font-size="16" font-weight="normal" text-anchor="start" fill="#000000">string</text><circle transform="translate(393.50634461967 469.77665711967006) scale(1)" cx="328.9786773732234" cy="174.97867737322343" r="52" fill="#ffffff" stroke="#000000" stroke-width="4"/><text xml:space="preserve" transform="translate(393.50634461967 469.77665711967006) scale(1) translate(328.9786773732234 174.97867737322343) scale(0.41406308593749996) translate(0 0) translate(0 0)" x="0" y="13.92822265625" font-family="sans-serif" font-size="50" font-weight="normal" text-anchor="middle" fill="#000000">SubIssue</text><rect transform="translate(393.50634461967 469.77665711967006) scale(1) translate(328.9786773732234 174.97867737322343) translate(39.59797974644666 39.597979746446654) translate(0 0) translate(0 0)" x="0" y="0" width="96.9296875" height="19.2" rx="0" ry="0" fill="white" stroke="none"/><text xml:space="preserve" transform="translate(393.50634461967 469.77665711967006) scale(1) translate(328.9786773732234 174.97867737322343) translate(39.59797974644666 39.597979746446654) translate(0 0) translate(0 0)" x="48.9140625" y="14.05703125" font-family="sans-serif" font-size="16" font-weight="normal" text-anchor="end" fill="#000000">name:</text><text xml:space="preserve" transform="translate(393.50634461967 469.77665711967006) scale(1) translate(328.9786773732234 174.97867737322343) translate(39.59797974644666 39.597979746446654) translate(0 0) translate(0 0)" x="53.359375" y="14.05703125" font-family="sans-serif" font-size="16" font-weight="normal" text-anchor="start" fill="#000000">string</text><circle transform="translate(393.50634461967 469.77665711967006) scale(1)" cx="36" cy="174.97867737322343" r="52" fill="#ffffff" stroke="#000000" stroke-width="4"/><text xml:space="preserve" transform="translate(393.50634461967 469.77665711967006) scale(1) translate(36 174.97867737322343) scale(0.890625109375) translate(0 0) translate(0 0)" x="0" y="13.92822265625" font-family="sans-serif" font-size="50" font-weight="normal" text-anchor="middle" fill="#000000">Tag</text><rect transform="translate(393.50634461967 469.77665711967006) scale(1) translate(36 174.97867737322343) translate(3.429011037612589e-15 56) translate(0 0) translate(-48.46484375 0)" x="0" y="0" width="96.9296875" height="19.2" rx="0" ry="0" fill="white" stroke="none"/><text xml:space="preserve" transform="translate(393.50634461967 469.77665711967006) scale(1) translate(36 174.97867737322343) translate(3.429011037612589e-15 56) translate(0 0) translate(-48.46484375 0)" x="48.9140625" y="14.05703125" font-family="sans-serif" font-size="16" font-weight="normal" text-anchor="end" fill="#000000">name:</text><text xml:space="preserve" transform="translate(393.50634461967 469.77665711967006) scale(1) translate(36 174.97867737322343) translate(3.429011037612589e-15 56) translate(0 0) translate(-48.46484375 0)" x="53.359375" y="14.05703125" font-family="sans-serif" font-size="16" font-weight="normal" text-anchor="start" fill="#000000">string</text><circle transform="translate(393.50634461967 469.77665711967006) scale(1)" cx="367.12393264616094" cy="-410.9786773732234" r="52" fill="#ffffff" stroke="#000000" stroke-width="4"/><text xml:space="preserve" transform="translate(393.50634461967 469.77665711967006) scale(1) translate(367.12393264616094 -410.9786773732234) scale(0.384766240234375) translate(0 0) translate(0 0)" x="0" y="13.92822265625" font-family="sans-serif" font-size="50" font-weight="normal" text-anchor="middle" fill="#000000">Response</text></svg>