<svg xmlns="http://www.w3.org/2000/svg" width="580.8575439453125" height="370.522705078125" viewBox="-374.7983093261719 -60.19617462158203 580.8575439453125 370.522705078125"><title>Neo4j Graph Visualization</title><desc>Created using Neo4j (http://www.neo4j.com/)</desc><g class="layer relationships"><g class="relationship" transform="translate(-31.17595746543506 169.78466015871533) rotate(425.43339270598176)"><path class="outline" fill="#A5ABB6" stroke="none" d="M 25 0.5 L 32.15391732661422 0.5 L 32.15391732661422 -0.5 L 25 -0.5 Z M 83.48985482661422 0.5 L 90.64377215322844 0.5 L 90.64377215322844 3.5 L 97.64377215322844 0 L 90.64377215322844 -3.5 L 90.64377215322844 -0.5 L 83.48985482661422 -0.5 Z"/><text text-anchor="middle" pointer-events="none" font-size="8px" fill="#000000" x="57.82188607661422" y="3" font-family="sans-serif">PERFORMS</text></g><g class="relationship" transform="translate(-187.1742156247156 113.07451519753937) rotate(324.07609245643584)"><path class="outline" fill="#A5ABB6" stroke="none" d="M 21.40063509461097,-12.933012701892217 L 21.90063509461097,-12.06698729810778 A 169.3409328122258 169.3409328122258 0 0 1 83.46564655391842,-33.17067133801942 L 83.32920314024935,-34.161319204249565 A 170.3409328122258 170.3409328122258 0 0 0 21.40063509461097,-12.933012701892217 Z M 114.23936747076596,-35.5816810600607 L 114.1943503052295,-34.582694846538686 A 169.3409328122258 169.3409328122258 0 0 1 177.43531426181994,-19.21400609693127 L 176.17990226690065,-16.48931515610646 L 184.00216178956438,-16.73882659892375 L 179.1091969217123,-22.846927351364354 L 177.85378492679303,-20.122236410539543 A 170.3409328122258 170.3409328122258 0 0 0 114.23936747076596,-35.5816810600607"/><text text-anchor="middle" pointer-events="none" font-size="8px" fill="#000000" x="98.77491848504557" y="-32.075342525241496" font-family="sans-serif">SINGS</text></g><g class="relationship" transform="translate(153.90552907914497 116.92203940727727) rotate(219.29699456515795)"><path class="outline" fill="#A5ABB6" stroke="none" d="M 21.40063509461097,-12.933012701892217 L 21.90063509461097,-12.06698729810778 A 158.8468344655835 158.8468344655835 0 0 1 69.22472322788505,-30.071352262325647 L 69.02264599287113,-31.0507218509331 A 159.8468344655835 159.8468344655835 0 0 0 21.40063509461097,-12.933012701892217 Z M 118.48745005786995,-33.42430495501041 L 118.38007603455664,-32.43008625717904 A 158.8468344655835 158.8468344655835 0 0 1 167.21064901548473,-19.03973085618606 L 165.96630700055417,-16.309966589829248 L 173.78748930613907,-16.591226865740875 L 168.86977170205884,-22.67941654466181 L 167.62542968712827,-19.949652278304995 A 159.8468344655835 159.8468344655835 0 0 0 118.48745005786995,-33.42430495501041"/><text text-anchor="middle" pointer-events="none" font-size="8px" fill="#000000" x="93.68653579846881" y="-30.66528893521648" transform="rotate(180 93.68653579846881 -33.66528893521648)" font-family="sans-serif">EXCLUDED</text></g><g class="relationship" transform="translate(-8.750552362582368 -16.196173297509432) rotate(399.29699456515795)"><path class="outline" fill="#A5ABB6" stroke="none" d="M 40 0.5 L 85.64686059544829 0.5 L 85.64686059544829 -0.5 L 40 -0.5 Z M 132.5374855954483 0.5 L 178.18434619089658 0.5 L 178.18434619089658 3.5 L 185.18434619089658 0 L 178.18434619089658 -3.5 L 178.18434619089658 -0.5 L 132.5374855954483 -0.5 Z"/><text text-anchor="middle" pointer-events="none" font-size="8px" fill="#000000" x="109.09217309544829" y="3" font-family="sans-serif">DIRECTED</text></g><g class="relationship" transform="translate(-187.1742156247156 113.07451519753937) rotate(399.10630838753366)"><path class="outline" fill="#A5ABB6" stroke="none" d="M 25 0.5 L 104.20422858653328 0.5 L 104.20422858653328 -0.5 L 25 -0.5 Z M 155.54016608653328 0.5 L 234.74439467306655 0.5 L 234.74439467306655 3.5 L 241.74439467306655 0 L 234.74439467306655 -3.5 L 234.74439467306655 -0.5 L 155.54016608653328 -0.5 Z"/><text text-anchor="middle" pointer-events="none" font-size="8px" fill="#000000" x="129.87219733653328" y="3" font-family="sans-serif">PERFORMS</text></g><g class="relationship" transform="translate(-187.78143727856414 -10.488312775278807) rotate(538.3179946111275)"><path class="outline" fill="#A5ABB6" stroke="none" d="M 25 0.5 L 54.46046943453641 0.5 L 54.46046943453641 -0.5 L 25 -0.5 Z M 96.6245319345364 0.5 L 126.08500136907281 0.5 L 126.08500136907281 3.5 L 133.0850013690728 0 L 126.08500136907281 -3.5 L 126.08500136907281 -0.5 L 96.6245319345364 -0.5 Z"/><text text-anchor="middle" pointer-events="none" font-size="8px" fill="#000000" x="75.5425006845364" y="3" transform="rotate(180 75.5425006845364 0)" font-family="sans-serif">PART_OF</text></g><g class="relationship" transform="translate(-8.750552362582368 -16.196173297509432) rotate(456.875481234499)"><path class="outline" fill="#A5ABB6" stroke="none" d="M 38.50762352901147,10.835724717245364 L 38.766442574113995,9.869798890956295 A 218.0479187688921 218.0479187688921 0 0 0 74.3552970247159,16.300836220968478 L 74.25969372893829,17.296255735462978 A 219.0479187688921 219.0479187688921 0 0 1 38.50762352901147,10.835724717245364 Z M 121.16438542866771,16.755507883372815 L 121.04585890315623,15.762556996999194 A 218.0479187688921 218.0479187688921 0 0 0 156.47699172234582,8.512754972455818 L 155.63393490201238,5.633648305850833 L 163.335416747813,7.025473502778634 L 157.6010674827904,12.351563861262466 L 156.75801066245697,9.472457194657482 A 219.0479187688921 219.0479187688921 0 0 1 121.16438542866771,16.755507883372815"/><text text-anchor="middle" pointer-events="none" font-size="8px" fill="#000000" x="97.72079210358791" y="20.785079418883782" transform="rotate(180 97.72079210358791 17.785079418883782)" font-family="sans-serif">DIRECTED</text></g><g class="relationship" transform="translate(-8.750552362582368 -16.196173297509432) rotate(359.4809883019009)"><path class="outline" fill="#A5ABB6" stroke="none" d="M 40 0.5 L 73.53566141777029 0.5 L 73.53566141777029 -0.5 L 40 -0.5 Z M 120.28175516777029 0.5 L 153.81741658554057 0.5 L 153.81741658554057 3.5 L 160.81741658554057 0 L 153.81741658554057 -3.5 L 153.81741658554057 -0.5 L 120.28175516777029 -0.5 Z"/><text text-anchor="middle" pointer-events="none" font-size="8px" fill="#000000" x="96.90870829277029" y="3" font-family="sans-serif">CONTAINS</text></g><g class="relationship" transform="translate(-187.1742156247156 113.07451519753937) rotate(324.07609245643584)"><path class="outline" fill="#A5ABB6" stroke="none" d="M 25 0.5 L 74.3824840419476 0.5 L 74.3824840419476 -0.5 L 25 -0.5 Z M 123.9488902919476 0.5 L 173.3313743338952 0.5 L 173.3313743338952 3.5 L 180.3313743338952 0 L 173.3313743338952 -3.5 L 173.3313743338952 -0.5 L 123.9488902919476 -0.5 Z"/><text text-anchor="middle" pointer-events="none" font-size="8px" fill="#000000" x="99.1656871669476" y="3" font-family="sans-serif">EXCLUDED</text></g><g class="relationship" transform="translate(153.90552907914497 116.92203940727727) rotate(489.2015065290741)"><path class="outline" fill="#A5ABB6" stroke="none" d="M 25 0.5 L 76.90932530825152 0.5 L 76.90932530825152 -0.5 L 25 -0.5 Z M 128.24526280825154 0.5 L 180.15458811650305 0.5 L 180.15458811650305 3.5 L 187.15458811650305 0 L 180.15458811650305 -3.5 L 180.15458811650305 -0.5 L 128.24526280825154 -0.5 Z"/><text text-anchor="middle" pointer-events="none" font-size="8px" fill="#000000" x="102.57729405825152" y="3" transform="rotate(180 102.57729405825152 0)" font-family="sans-serif">PERFORMS</text></g><g class="relationship" transform="translate(-8.750552362582368 -16.196173297509432) rotate(444.5160925194008)"><path class="outline" fill="#A5ABB6" stroke="none" d="M 40 0.5 L 130.88676372086002 0.5 L 130.88676372086002 -0.5 L 40 -0.5 Z M 176.00395122086002 0.5 L 266.89071494172003 0.5 L 266.89071494172003 3.5 L 273.89071494172003 0 L 266.89071494172003 -3.5 L 266.89071494172003 -0.5 L 176.00395122086002 -0.5 Z"/><text text-anchor="middle" pointer-events="none" font-size="8px" fill="#000000" x="153.44535747086002" y="3" font-family="sans-serif">OF_SONG</text></g><g class="relationship" transform="translate(-8.750552362582368 -16.196173297509432) rotate(538.173915192988)"><path class="outline" fill="#A5ABB6" stroke="none" d="M 40 0.5 L 82.33631601316907 0.5 L 82.33631601316907 -0.5 L 40 -0.5 Z M 104.78553476316907 0.5 L 147.12185077633814 0.5 L 147.12185077633814 3.5 L 154.12185077633814 0 L 147.12185077633814 -3.5 L 147.12185077633814 -0.5 L 104.78553476316907 -0.5 Z"/><text text-anchor="middle" pointer-events="none" font-size="8px" fill="#000000" x="93.56092538816907" y="3" transform="rotate(180 93.56092538816907 0)" font-family="sans-serif">HAS</text></g><g class="relationship" transform="translate(-31.17595746543506 169.78466015871533) rotate(276.875481234499)"><path class="outline" fill="#A5ABB6" stroke="none" d="M 24.018736134675446,6.953439040707552 L 24.277555179777966,5.987513214418485 A 251.75331261642714 251.75331261642714 0 0 0 67.17760767895764,13.579888123566121 L 67.08919375009104,14.575971943925822 A 252.75331261642714 252.75331261642714 0 0 1 24.018736134675446,6.953439040707552 Z M 98.01409729145621,15.420196649578116 L 97.98015910069581,14.42077271590037 A 251.75331261642714 251.75331261642714 0 0 0 141.23053968611632,9.180234536506225 L 140.61333510602242,6.24441122671541 L 148.18366150564387,8.229394401252216 L 142.05347912624154,13.09466561622731 L 141.43627454614764,10.158842306436496 A 252.75331261642714 252.75331261642714 0 0 1 98.01409729145621,15.420196649578116"/><text text-anchor="middle" pointer-events="none" font-size="8px" fill="#000000" x="82.55236151848666" y="17.97185649263386" font-family="sans-serif">SINGS</text></g><g class="relationship" transform="translate(-8.750552362582368 -16.196173297509432) rotate(504.07609245643584)"><path class="outline" fill="#A5ABB6" stroke="none" d="M 34.39101615137755,-20.433012701892217 L 34.89101615137755,-19.566987298107776 A 153.16358615203004 153.16358615203004 0 0 1 91.03546418153363,-38.71736690083692 L 90.90202943010667,-39.70842450113652 A 154.16358615203004 154.16358615203004 0 0 0 34.39101615137755,-20.433012701892217 Z M 137.7546904298334,-38.83022459890587 L 137.58420995608182,-37.84486354423127 A 153.16358615203004 153.16358615203004 0 0 1 192.97156902618175,-16.60394692607794 L 191.37526088572284,-14.06390749317447 L 199.16437905969968,-13.30256783715769 L 195.099979880127,-19.99066616994923 L 193.50367173966808,-17.45062673704576 A 154.16358615203004 154.16358615203004 0 0 0 137.7546904298334,-38.83022459890587"/><text text-anchor="middle" pointer-events="none" font-size="8px" fill="#000000" x="114.35255274698986" y="-37.56003051751081" transform="rotate(180 114.35255274698986 -40.56003051751081)" font-family="sans-serif">DIRECTED</text></g><g class="relationship" transform="translate(153.90552907914497 116.92203940727727) rotate(219.29699456515795)"><path class="outline" fill="#A5ABB6" stroke="none" d="M 21.40063509461097,12.933012701892217 L 21.90063509461097,12.06698729810778 A 158.8468344655835 158.8468344655835 0 0 0 78.38922985276295,31.68400564445271 L 78.24484660111176,32.673527486880985 A 159.8468344655835 159.8468344655835 0 0 1 21.40063509461097,12.933012701892217 Z M 109.15223792442295,34.15662770779197 L 109.10326488330398,33.1578276070493 A 158.8468344655835 158.8468344655835 0 0 0 167.21064901548473,19.03973085618606 L 165.96630700055417,16.309966589829248 L 173.78748930613907,16.591226865740875 L 168.86977170205884,22.67941654466181 L 167.62542968712827,19.949652278304995 A 159.8468344655835 159.8468344655835 0 0 1 109.15223792442295,34.15662770779197"/><text text-anchor="middle" pointer-events="none" font-size="8px" fill="#000000" x="93.68653579846881" y="36.66528893521648" transform="rotate(180 93.68653579846881 33.66528893521648)" font-family="sans-serif">SINGS</text></g></g><g class="layer nodes"><g class="node" transform="translate(-345.7983242402387,-5.848151915877281)"><circle class="outline" cx="0" cy="0" r="25" fill="#ECB5C9" stroke="#da7298" stroke-width="2px"/><text text-anchor="middle" pointer-events="none" font-family="sans-serif" dy="1.5625" font-size="25" fill="#2A2C34"/><text text-anchor="middle" pointer-events="none" x="0" y="5" font-size="10px" fill="#2A2C34" font-family="sans-serif"> Category</text></g><g class="node" transform="translate(-31.17595746543506,169.78466015871533)"><circle class="outline" cx="0" cy="0" r="25" fill="#FFC454" stroke="#d7a013" stroke-width="2px"/><text text-anchor="middle" pointer-events="none" font-family="sans-serif" dy="1.5625" font-size="25" fill="#2A2C34"/><text text-anchor="middle" pointer-events="none" x="0" y="5" font-size="10px" fill="#2A2C34" font-family="sans-serif"> Group</text></g><g class="node" transform="translate(-187.1742156247156,113.07451519753937)"><circle class="outline" cx="0" cy="0" r="25" fill="#57C7E3" stroke="#23b3d7" stroke-width="2px"/><text text-anchor="middle" pointer-events="none" font-family="sans-serif" dy="1.5625" font-size="25" fill="#2A2C34"/><text text-anchor="middle" pointer-events="none" x="0" y="5" font-size="10px" fill="#2A2C34" font-family="sans-serif"> Individual</text></g><g class="node" transform="translate(-8.750552362582368,-16.196173297509432)"><circle class="outline" cx="0" cy="0" r="40" fill="#F79767" stroke="#f36924" stroke-width="2px"/><text text-anchor="middle" pointer-events="none" font-family="sans-serif" dy="2.5" font-size="40" fill="#FFFFFF"/><text text-anchor="middle" pointer-events="none" x="0" y="5" font-size="10px" fill="#FFFFFF" font-family="sans-serif"> Lines</text></g><g class="node" transform="translate(153.90552907914497,116.92203940727727)"><circle class="outline" cx="0" cy="0" r="25" fill="#8DCC93" stroke="#5db665" stroke-width="2px"/><text text-anchor="middle" pointer-events="none" font-family="sans-serif" dy="1.5625" font-size="25" fill="#2A2C34"/><text text-anchor="middle" pointer-events="none" x="0" y="5" font-size="10px" fill="#2A2C34" font-family="sans-serif"> Singer</text></g><g class="node" transform="translate(19.81328981402008,281.3265424713587)"><circle class="outline" cx="0" cy="0" r="25" fill="#C990C0" stroke="#b261a5" stroke-width="2px"/><text text-anchor="middle" pointer-events="none" font-family="sans-serif" dy="1.5625" font-size="25" fill="#FFFFFF"/><text text-anchor="middle" pointer-events="none" x="0" y="5" font-size="10px" fill="#FFFFFF" font-family="sans-serif"> Song</text></g><g class="node" transform="translate(-187.78143727856414,-10.488312775278807)"><circle class="outline" cx="0" cy="0" r="25" fill="#4C8EDA" stroke="#2870c2" stroke-width="2px"/><text text-anchor="middle" pointer-events="none" font-family="sans-serif" dy="1.5625" font-size="25" fill="#FFFFFF"/><text text-anchor="middle" pointer-events="none" x="0" y="5" font-size="10px" fill="#FFFFFF" font-family="sans-serif"> Theme</text></g><g class="node" transform="translate(177.05924058118947,-17.879370468656532)"><circle class="outline" cx="0" cy="0" r="25" fill="#D9C8AE" stroke="#c0a378" stroke-width="2px"/><text text-anchor="middle" pointer-events="none" font-family="sans-serif" dy="1.5625" font-size="25" fill="#2A2C34"/><text text-anchor="middle" pointer-events="none" x="0" y="5" font-size="10px" fill="#2A2C34" font-family="sans-serif"> Word</text></g></g></svg>